<svg width="50" height="50" viewBox="0 0 50 50" fill="none" xmlns="http://www.w3.org/2000/svg">
<path d="M7.42186 44.043H1.46484V20.6056C1.46484 18.9875 2.77656 17.6759 4.39452 17.6759H30.8593V44.043H13.2812" stroke="#1F1F1F" stroke-width="2" stroke-miterlimit="10" stroke-linecap="round" stroke-linejoin="round"/>
<path d="M30.8594 17.6759H37.8378C38.3818 17.6759 38.9152 17.8274 39.378 18.1134C39.8408 18.3994 40.2148 18.8087 40.4582 19.2953L45.5078 29.3946L48.5351 32.3243V44.043H42.5781" stroke="#1F1F1F" stroke-width="2" stroke-miterlimit="10" stroke-linecap="round" stroke-linejoin="round"/>
<path d="M36.7187 44.043H30.8594" stroke="#1F1F1F" stroke-width="2" stroke-miterlimit="10" stroke-linecap="round" stroke-linejoin="round"/>
<path d="M27.9297 17.6759V14.7462C27.9297 13.1281 29.2414 11.8165 30.8594 11.8165C32.4773 11.8165 33.789 13.1281 33.789 14.7462V17.6759" stroke="#1F1F1F" stroke-width="2" stroke-miterlimit="10" stroke-linecap="round" stroke-linejoin="round"/>
<path d="M42.5781 35.254H48.5351" stroke="#1F1F1F" stroke-width="2" stroke-miterlimit="10" stroke-linecap="round" stroke-linejoin="round"/>
<path d="M13.2812 44.043C13.2812 45.661 11.9695 46.9727 10.3516 46.9727C8.73359 46.9727 7.42188 45.661 7.42188 44.043C7.42188 42.4249 8.73359 41.1133 10.3516 41.1133C11.9695 41.1133 13.2812 42.4249 13.2812 44.043Z" stroke="#1F1F1F" stroke-width="2" stroke-miterlimit="10" stroke-linecap="round" stroke-linejoin="round"/>
<path d="M42.5781 44.043C42.5781 45.661 41.2664 46.9727 39.6484 46.9727C38.0305 46.9727 36.7188 45.661 36.7188 44.043C36.7188 42.4249 38.0305 41.1133 39.6484 41.1133C41.2664 41.1133 42.5781 42.4249 42.5781 44.043Z" stroke="#1F1F1F" stroke-width="2" stroke-miterlimit="10" stroke-linecap="round" stroke-linejoin="round"/>
<path d="M1.46484 35.254H30.8593" stroke="#1F1F1F" stroke-width="2" stroke-miterlimit="10" stroke-linecap="round" stroke-linejoin="round"/>
<path d="M16.2109 23.5352V29.3946" stroke="#1F1F1F" stroke-width="2" stroke-miterlimit="10" stroke-linecap="round" stroke-linejoin="round"/>
<path d="M13.2812 26.4649H19.1406" stroke="#1F1F1F" stroke-width="2" stroke-miterlimit="10" stroke-linecap="round" stroke-linejoin="round"/>
<path d="M30.8594 3.02747V5.95715" stroke="#1F1F1F" stroke-width="2" stroke-miterlimit="10" stroke-linecap="round" stroke-linejoin="round"/>
<path d="M22.5723 6.4598L24.6438 8.53137" stroke="#1F1F1F" stroke-width="2" stroke-miterlimit="10" stroke-linecap="round" stroke-linejoin="round"/>
<path d="M37.0742 8.53137L39.1458 6.4598" stroke="#1F1F1F" stroke-width="2" stroke-miterlimit="10" stroke-linecap="round" stroke-linejoin="round"/>
<path d="M30.8594 29.3946H45.5078" stroke="#1F1F1F" stroke-width="2" stroke-miterlimit="10" stroke-linecap="round" stroke-linejoin="round"/>
</svg>
