<svg width="50" height="50" viewBox="0 0 50 50" fill="none" xmlns="http://www.w3.org/2000/svg">
<g clip-path="url(#clip0_18861_21122)">
<path d="M34.9453 22.1622C37.6573 22.8536 39.7051 25.2393 39.8613 28.1563L40.1904 34.2901" stroke="black" stroke-width="2" stroke-miterlimit="10" stroke-linecap="round" stroke-linejoin="round"/>
<path d="M9.80859 34.2901L10.1377 28.1563C10.2939 25.2393 12.3417 22.8536 15.0537 22.1622" stroke="black" stroke-width="2" stroke-miterlimit="10" stroke-linecap="round" stroke-linejoin="round"/>
<path d="M20.206 28.0137V29.7061C20.206 30.5977 19.6016 31.376 18.7373 31.5977L12.0801 33.3038C8.62402 34.1895 6.20703 37.3037 6.20703 40.8711V49.2676" stroke="black" stroke-width="2" stroke-miterlimit="10" stroke-linecap="round" stroke-linejoin="round"/>
<path d="M39.4902 33.8916C42.0859 35.1963 43.792 37.8741 43.792 40.8711V49.2676" stroke="black" stroke-width="2" stroke-miterlimit="10" stroke-linecap="round" stroke-linejoin="round"/>
<path d="M29.793 28.0137V29.7061C29.793 30.5977 30.3974 31.376 31.2617 31.5977L34.4326 32.4102" stroke="black" stroke-width="2" stroke-miterlimit="10" stroke-linecap="round" stroke-linejoin="round"/>
<path d="M19.2344 31.3929C20.4968 33.2234 22.6072 34.4239 24.9989 34.4239C27.3907 34.4239 29.5011 33.2234 30.7635 31.3929" stroke="black" stroke-width="2" stroke-miterlimit="10" stroke-linecap="round" stroke-linejoin="round"/>
<path d="M30.7695 39.5909C30.8124 39.5157 30.8545 39.4405 30.8975 39.3643C32.2148 37.0166 33.432 34.614 34.5459 32.1632C34.6393 31.9575 34.8088 31.796 35.0187 31.7124C35.2285 31.6289 35.4626 31.6298 35.6719 31.7149L38.9462 33.0489C39.3984 33.2325 39.6133 33.752 39.4209 34.2013C38.626 36.0567 37.709 38.0108 36.6494 40.0342" stroke="black" stroke-width="2" stroke-miterlimit="10" stroke-linecap="round" stroke-linejoin="round"/>
<path d="M24.4941 49.2676C25.8612 47.4177 27.1599 45.5184 28.3877 43.5733" stroke="black" stroke-width="2" stroke-miterlimit="10" stroke-linecap="round" stroke-linejoin="round"/>
<path d="M32.6065 46.9131C32.0869 47.7073 31.5533 48.4923 31.0059 49.2676" stroke="black" stroke-width="2" stroke-miterlimit="10" stroke-linecap="round" stroke-linejoin="round"/>
<path d="M38.5508 49.2676C38.3672 48.416 38.1064 47.5928 37.7734 46.8066" stroke="black" stroke-width="2" stroke-miterlimit="10" stroke-linecap="round" stroke-linejoin="round"/>
<path d="M16.0039 41.6514C18.4248 39.5841 21.5664 38.336 24.999 38.336C28.4317 38.336 31.5733 39.5841 33.9942 41.6514" stroke="black" stroke-width="2" stroke-miterlimit="10" stroke-linecap="round" stroke-linejoin="round"/>
<path d="M12.2266 46.8066C11.8936 47.5928 11.6328 48.416 11.4492 49.2676" stroke="black" stroke-width="2" stroke-miterlimit="10" stroke-linecap="round" stroke-linejoin="round"/>
<path d="M18.1482 45.9659C17.2892 46.9096 16.622 48.0309 16.209 49.2675" stroke="black" stroke-width="2" stroke-miterlimit="10" stroke-linecap="round" stroke-linejoin="round"/>
<path d="M33.7914 49.2676C32.563 45.5899 29.0863 42.9317 25.0004 42.9317C23.5408 42.9317 22.1591 43.2708 20.9297 43.8745" stroke="black" stroke-width="2" stroke-miterlimit="10" stroke-linecap="round" stroke-linejoin="round"/>
<path d="M37.8099 46.792L37.8097 46.7921C37.0745 47.113 36.2167 46.8215 35.8285 46.1195C35.1188 44.8354 34.5308 43.4878 34.072 42.0942C33.8216 41.3335 34.1932 40.5079 34.9271 40.1875C36.2581 39.6066 37.8123 40.1722 38.454 41.475C38.7534 42.083 39.0245 42.7045 39.2665 43.3375C39.784 44.6913 39.1382 46.2122 37.8099 46.792Z" stroke="black" stroke-width="2" stroke-miterlimit="10" stroke-linecap="round" stroke-linejoin="round"/>
<path d="M12.1897 46.792L12.1899 46.7921C12.925 47.113 13.7828 46.8215 14.171 46.1195C14.8807 44.8354 15.4688 43.4878 15.9275 42.0942C16.1779 41.3335 15.8064 40.5079 15.0725 40.1875C13.7414 39.6066 12.1872 40.1722 11.5455 41.475C11.2461 42.083 10.975 42.7045 10.733 43.3375C10.2155 44.6913 10.8613 46.2122 12.1897 46.792Z" stroke="black" stroke-width="2" stroke-miterlimit="10" stroke-linecap="round" stroke-linejoin="round"/>
<path d="M14.4316 14.7437V6.81213C14.4316 3.45443 17.1535 0.732561 20.5112 0.732561H29.4887C32.8463 0.732561 35.5682 3.45443 35.5682 6.81213V14.7437" stroke="black" stroke-width="2" stroke-miterlimit="10" stroke-linecap="round" stroke-linejoin="round"/>
<path d="M24.557 10.7764C25.5762 10.2778 26.5578 9.70561 27.494 9.06447C27.6183 8.97941 27.7674 8.93808 27.9178 8.94697C28.0682 8.95586 28.2113 9.01447 28.3248 9.11359C29.1715 9.85341 30.0792 10.5204 31.0382 11.1073C32.4573 11.9751 33.9791 12.6625 35.5683 13.1535V18.5724C35.5683 24.422 30.8368 29.1642 25 29.1642C19.1633 29.1642 14.4316 24.422 14.4316 18.5724V13.1535C16.1738 13.1349 18.6248 12.9232 21.3819 12.0483" stroke="black" stroke-width="2" stroke-miterlimit="10" stroke-linecap="round" stroke-linejoin="round"/>
<path d="M35.9615 18.8188H35.5684V13.3662H35.9615C37.4672 13.3662 38.6878 14.5868 38.6878 16.0925C38.6878 17.5981 37.4672 18.8188 35.9615 18.8188Z" stroke="black" stroke-width="2" stroke-miterlimit="10" stroke-linecap="round" stroke-linejoin="round"/>
<path d="M14.0388 18.8188H14.4319V13.3662H14.0388C12.5331 13.3662 11.3125 14.5868 11.3125 16.0925C11.3125 17.5981 12.5331 18.8188 14.0388 18.8188Z" stroke="black" stroke-width="2" stroke-miterlimit="10" stroke-linecap="round" stroke-linejoin="round"/>
<path d="M20.8594 16.0149V17.6714" stroke="black" stroke-width="2" stroke-miterlimit="10" stroke-linecap="round" stroke-linejoin="round"/>
<path d="M29.1406 16.0149V17.6714" stroke="black" stroke-width="2" stroke-miterlimit="10" stroke-linecap="round" stroke-linejoin="round"/>
<path d="M23.3438 23.3636C23.8409 23.636 24.3974 23.7818 24.9643 23.7884C25.7798 23.7969 26.3847 23.5129 26.6568 23.3636" stroke="black" stroke-width="2" stroke-miterlimit="10" stroke-linecap="round" stroke-linejoin="round"/>
</g>
<defs>
<clipPath id="clip0_18861_21122">
<rect width="50" height="50" fill="white"/>
</clipPath>
</defs>
</svg>
